<mxfile host="app.diagrams.net" agent="Mozilla/5.0 (Windows NT 10.0; Win64; x64) AppleWebKit/537.36 (KHTML, like Gecko) Chrome/138.0.0.0 Safari/537.36 OPR/122.0.0.0" version="28.2.7">
  <diagram name="Page-1" id="P2L0cl1aCN6y_Zei07de">
    <mxGraphModel dx="2063" dy="549" grid="1" gridSize="10" guides="1" tooltips="1" connect="1" arrows="1" fold="1" page="1" pageScale="1" pageWidth="827" pageHeight="1169" math="0" shadow="0">
      <root>
        <mxCell id="0" />
        <mxCell id="1" parent="0" />
        <mxCell id="AbqC0_G8vrkdxvc_f1OY-1" value="" style="rounded=1;whiteSpace=wrap;shadow=1;strokeColor=#FFFFFF;" vertex="1" parent="1">
          <mxGeometry x="-190" y="40" width="660" height="360" as="geometry" />
        </mxCell>
      </root>
    </mxGraphModel>
  </diagram>
</mxfile>
